HIERARCHY
ROOT root
{
	OFFSET 0.000000 0.000000 0.000000
	CHANNELS 6 Xposition Yposition Zposition Zrotation Yrotation Xrotation
	JOINT lhip
	{
		OFFSET 0.058581 -0.082280 -0.017664
		CHANNELS 3 Zrotation Yrotation Xrotation
		JOINT lknee
		{
			OFFSET 0.043451 -0.386469 0.008037
			CHANNELS 3 Zrotation Yrotation Xrotation
			JOINT lankle
			{
				OFFSET -0.014790 -0.426874 -0.037428
				CHANNELS 3 Zrotation Yrotation Xrotation
				JOINT ltoe
				{
					OFFSET 0.041054 -0.060286 0.122042
					CHANNELS 3 Zrotation Yrotation Xrotation
					End Site
					{
						OFFSET 0.000000 0.000000 0.000000
					}
				}
			}
		}
	}
	JOINT rhip
	{
		OFFSET -0.060310 -0.090513 -0.013543
		CHANNELS 3 Zrotation Yrotation Xrotation
		JOINT rknee
		{
			OFFSET -0.043257 -0.383688 -0.004843
			CHANNELS 3 Zrotation Yrotation Xrotation
			JOINT rankle
			{
				OFFSET 0.019056 -0.420046 -0.034562
				CHANNELS 3 Zrotation Yrotation Xrotation
				JOINT rtoe
				{
					OFFSET -0.034840 -0.062106 0.130323
					CHANNELS 3 Zrotation Yrotation Xrotation
					End Site
					{
						OFFSET 0.000000 0.000000 0.000000
					}
				}
			}
		}
	}
	JOINT lowerback
	{
		OFFSET 0.004439 0.124404 -0.038385
		CHANNELS 3 Zrotation Yrotation Xrotation
		JOINT upperback
		{
			OFFSET 0.004488 0.137956 0.026820
			CHANNELS 3 Zrotation Yrotation Xrotation
			JOINT chest
			{
				OFFSET -0.002265 0.056032 0.002855
				CHANNELS 3 Zrotation Yrotation Xrotation
				JOINT lowerneck
				{
					OFFSET -0.013390 0.211636 -0.033468
					CHANNELS 3 Zrotation Yrotation Xrotation
					JOINT upperneck
					{
						OFFSET 0.010113 0.088937 0.050410
						CHANNELS 3 Zrotation Yrotation Xrotation
						End Site
						{
							OFFSET 0.000000 0.000000 0.000000
						}
					}
				}
				JOINT lclavicle
				{
					OFFSET 0.071702 0.114000 -0.018898
					CHANNELS 3 Zrotation Yrotation Xrotation
					JOINT lshoulder
					{
						OFFSET 0.122921 0.045205 -0.019046
						CHANNELS 3 Zrotation Yrotation Xrotation
						JOINT lelbow
						{
							OFFSET 0.255332 -0.015649 -0.022946
							CHANNELS 3 Zrotation Yrotation Xrotation
							JOINT lwrist
							{
								OFFSET 0.265709 0.012698 -0.007375
								CHANNELS 3 Zrotation Yrotation Xrotation
								End Site
								{
									OFFSET 0.000000 0.000000 0.000000
								}
							}
						}
					}
				}
				JOINT rclavicle
				{
					OFFSET -0.082954 0.112472 -0.023707
					CHANNELS 3 Zrotation Yrotation Xrotation
					JOINT rshoulder
					{
						OFFSET -0.113228 0.046853 -0.008472
						CHANNELS 3 Zrotation Yrotation Xrotation
						JOINT relbow
						{
							OFFSET -0.260127 -0.014369 -0.031269
							CHANNELS 3 Zrotation Yrotation Xrotation
							JOINT rwrist
							{
								OFFSET -0.269108 0.006794 -0.006027
								CHANNELS 3 Zrotation Yrotation Xrotation
								End Site
								{
									OFFSET 0.000000 0.000000 0.000000
								}
							}
						}
					}
				}
			}
		}
	}
}
MOTION
Frames: 12
Frame Time: 0.033333
1.240462 0.722519 0.981156 -90.804460 -0.139790 83.473320 -1.856975 -1.815845 0.696700 -0.994347 -8.179450 9.893777 2.863528 11.954576 -13.580545 0.000000 -0.000000 0.000000 0.872563 -1.077030 0.989361 -2.623466 2.143552 10.308126 0.567005 -9.671899 -13.577510 0.000000 -0.000000 0.000000 -0.948356 3.737828 8.712920 -0.529527 -2.270802 5.145127 -1.700167 0.329141 -2.637171 2.122948 -0.416781 -7.419092 5.691703 -1.330844 3.110714 -28.726170 -6.747984 -0.418620 -50.917408 -6.924091 15.694768 -0.652298 -22.169921 7.293629 -7.518359 -4.459801 6.254618 27.141696 7.897859 0.985288 57.033014 1.161256 19.478669 -3.560582 30.306256 10.131968 4.795507 3.620223 9.320785 
1.240752 0.722983 0.981054 -90.932425 -0.134729 83.551174 -1.772560 -1.742177 0.602809 -1.038206 -8.093641 9.843274 2.908082 11.965541 -13.489247 0.000000 -0.000000 0.000000 0.950015 -0.967754 0.802038 -2.645242 2.158506 10.427544 0.603813 -9.651832 -13.704790 0.000000 -0.000000 0.000000 -0.986288 3.856594 8.707776 -0.515727 -2.241803 5.197263 -1.685836 0.329273 -2.661329 2.244390 -0.251983 -7.456650 5.687515 -1.244130 2.721264 -28.470948 -6.537563 -0.610060 -51.473929 -6.885444 15.503947 0.110699 -22.149739 6.280061 -7.292932 -4.310356 6.173372 27.103414 7.773540 0.978599 57.370233 1.031579 19.309799 -4.668009 30.404907 9.366787 4.400264 3.608754 9.626990 
1.240990 0.723116 0.981444 -90.965240 -0.055280 83.590330 -1.665059 -1.760214 0.494751 -1.060670 -8.030708 9.932615 2.923988 11.864801 -13.492911 0.000000 -0.000000 0.000000 1.014247 -1.058411 0.728199 -2.601433 2.139429 10.427964 0.532003 -9.560475 -13.680956 0.000000 -0.000000 0.000000 -0.944677 3.892130 8.705814 -0.481958 -2.256319 5.359583 -1.620392 0.268020 -2.770394 2.265198 -0.034865 -7.526344 5.633123 -1.143056 2.357027 -28.696257 -6.425488 -0.514513 -51.639502 -6.718400 14.843162 1.316786 -22.461790 4.586957 -7.054148 -4.004003 5.711461 27.281908 7.719690 1.053807 57.267800 0.944222 18.813946 -5.950262 30.789067 8.078360 3.201207 3.456811 10.040754 
1.240882 0.723116 0.981518 -90.874764 -0.112368 83.547304 -1.791931 -1.758801 0.610572 -0.969949 -8.094533 9.833716 2.869706 11.867147 -13.481183 0.000000 -0.000000 0.000000 0.991073 -0.913777 0.828970 -2.628605 2.028180 10.383879 0.567007 -9.646124 -13.721279 0.000000 -0.000000 0.000000 -0.993683 3.789194 8.763308 -0.541873 -2.161174 5.321053 -1.601696 0.210050 -2.585501 2.431947 0.211067 -7.674053 5.497455 -1.209608 1.965279 -28.622748 -6.053510 -0.596353 -51.759918 -6.825372 13.844322 2.406968 -22.774828 2.891096 -5.787376 -3.961415 5.190432 27.324157 7.423511 1.006487 57.393091 0.981047 18.168761 -7.587111 31.237701 6.504475 -0.044499 3.492919 11.095363 
1.240820 0.723193 0.981689 -90.864265 -0.082219 83.628460 -1.757957 -1.796129 0.521135 -0.933805 -8.001254 9.834764 2.952609 11.854609 -13.438230 0.000000 -0.000000 0.000000 1.010949 -0.991269 0.750418 -2.624157 2.001705 10.360266 0.586453 -9.605654 -13.709786 0.000000 -0.000000 0.000000 -0.919732 3.816432 8.696633 -0.588527 -2.176529 5.339794 -1.638837 0.206961 -2.580234 2.491696 0.339141 -7.671788 5.612469 -1.242101 1.766748 -28.542312 -5.853378 -0.711503 -51.776086 -6.868451 13.426933 3.070673 -22.641936 2.023095 -5.650608 -4.038721 4.941519 27.170447 7.212850 0.957022 57.546569 0.858235 17.797675 -8.518272 31.492993 5.653415 -0.426492 3.549197 11.041139 
1.240751 0.723259 0.981954 -90.879506 -0.096848 83.746886 -1.728485 -1.802410 0.390309 -0.993437 -8.132134 9.814745 2.955522 11.828294 -13.388221 0.000000 -0.000000 0.000000 1.016491 -1.037189 0.626522 -2.647149 2.016961 10.354908 0.547856 -9.604711 -13.758129 0.000000 -0.000000 0.000000 -0.943329 3.820514 8.670273 -0.589960 -2.229890 5.284800 -1.653812 0.245988 -2.651791 2.441659 0.352681 -7.726350 5.719962 -1.122271 1.665573 -28.305960 -5.525030 -1.044912 -51.717025 -6.733096 13.186255 3.364167 -22.494092 0.959848 -5.953166 -3.863043 4.354136 27.071232 6.906973 0.759736 57.509034 0.869999 17.293251 -9.290329 31.587348 4.045987 0.129647 3.516577 10.217843 
1.240796 0.723445 0.982028 -90.915800 -0.108728 83.800206 -1.752305 -1.806661 0.397058 -0.939970 -8.117997 9.706180 3.005682 11.900216 -13.370054 0.000000 -0.000000 0.000000 1.025507 -1.059759 0.533096 -2.646866 2.070789 10.387423 0.541230 -9.585092 -13.567824 0.000000 -0.000000 0.000000 -0.976558 3.852775 8.603576 -0.577593 -2.210016 5.297473 -1.643308 0.233302 -2.654383 2.403064 0.220229 -7.718094 5.703930 -1.096880 1.604422 -28.094102 -5.393132 -1.102903 -51.627731 -6.710212 13.073337 3.761107 -22.373581 0.348265 -6.216678 -3.662556 3.903943 26.771976 6.795457 0.684778 57.348497 0.971843 17.093437 -9.359672 31.579704 3.276138 0.776440 3.234024 9.111949 
1.240588 0.723469 0.982296 -90.834212 -0.076837 83.779698 -1.787930 -1.728805 0.476712 -0.786100 -8.157674 9.619534 2.896236 11.862545 -13.292097 0.000000 -0.000000 0.000000 1.091941 -1.083424 0.641684 -2.693819 2.094224 10.269078 0.557328 -9.668794 -13.629169 0.000000 -0.000000 0.000000 -0.900115 3.759611 8.645587 -0.606437 -2.290440 5.224038 -1.686713 0.253342 -2.623584 2.365825 0.164797 -7.735290 5.750018 -1.117267 1.652008 -27.977267 -5.427722 -1.143971 -51.308899 -6.629760 12.930518 3.969716 -21.986811 0.213160 -6.124053 -3.570584 4.054889 26.676520 6.819327 0.617500 56.851788 0.992819 17.011941 -9.227489 31.607685 3.563024 0.738770 3.273341 9.526539 
1.240854 0.723714 0.982322 -91.042166 -0.145443 83.820694 -1.808984 -1.611996 0.462697 -0.812248 -8.173456 9.535494 2.941899 12.034253 -13.247320 0.000000 -0.000000 0.000000 1.047050 -0.958800 0.487988 -2.690227 2.167224 10.408669 0.559087 -9.650386 -13.613673 0.000000 -0.000000 0.000000 -0.866225 3.785230 8.805092 -0.695262 -2.196776 4.996413 -1.742582 0.299262 -2.643064 2.267885 0.048245 -7.669349 5.789335 -1.114672 1.642063 -27.766307 -5.458099 -1.211506 -51.095111 -6.620258 12.883334 4.132684 -21.531732 -0.081109 -6.382978 -3.365116 3.877617 26.427697 6.922181 0.626030 56.640904 1.115230 16.995224 -9.092624 31.326034 3.582030 0.901606 3.114184 9.343311 
1.241116 0.724416 0.982285 -91.117562 -0.152444 83.657371 -1.800941 -1.509614 0.799291 -0.760224 -8.309854 9.233542 2.974234 12.054749 -13.153955 0.000000 -0.000000 0.000000 1.130262 -0.840466 0.632334 -2.744624 2.127355 10.436191 0.475044 -9.739662 -13.549804 0.000000 -0.000000 0.000000 -0.809773 3.801612 9.366749 -0.793546 -2.078260 4.488792 -1.736957 0.303678 -2.518904 2.185236 -0.110967 -7.752002 5.911335 -0.989160 1.710662 -27.806103 -5.526450 -1.105414 -50.800009 -6.635007 12.722610 4.629430 -21.246106 -0.351022 -6.190392 -3.150053 3.788120 26.272258 7.078759 0.648222 56.628044 1.100418 16.829941 -9.790711 30.772780 2.841188 1.098532 3.035066 8.492649 
1.240761 0.724845 0.982364 -91.067714 -0.164447 83.591387 -1.779973 -1.517258 0.900110 -0.772879 -8.275395 9.233026 2.983320 12.005894 -13.164080 0.000000 -0.000000 0.000000 1.166191 -0.805672 0.772478 -2.793903 2.066440 10.380154 0.514399 -9.739349 -13.658001 0.000000 -0.000000 0.000000 -0.896202 3.804313 9.382245 -0.806890 -2.053440 4.522927 -1.697498 0.294619 -2.448574 2.219870 0.004047 -7.705856 5.985400 -1.076864 1.406679 -27.580772 -5.321894 -1.178760 -50.917880 -6.683186 12.345403 5.417969 -21.329744 -0.712750 -6.773777 -3.549563 4.048356 26.263755 7.086865 0.667577 56.638245 1.149898 16.472331 -10.624698 30.394676 2.345125 1.753581 3.258850 8.831788 
1.240775 0.725413 0.982589 -90.961398 -0.171880 83.527329 -1.748732 -1.613200 0.938015 -0.823367 -8.282233 9.293954 2.982972 12.030093 -13.163799 0.000000 -0.000000 0.000000 1.221783 -0.767628 0.806339 -2.825474 2.039516 10.485234 0.414274 -9.846559 -13.642729 0.000000 -0.000000 0.000000 -1.024333 3.769004 9.501541 -0.748309 -2.132056 4.599151 -1.638261 0.347843 -2.402868 2.203778 0.012251 -7.866744 5.968990 -1.162162 1.008943 -27.429051 -4.939792 -1.354006 -50.826736 -6.786033 11.545604 5.972863 -22.135968 -2.154937 -7.823526 -3.269263 3.345789 26.394865 6.892431 0.628043 56.291442 1.203981 15.977292 -11.591595 30.553739 1.562491 2.642734 3.345870 9.148399 
